<svg xmlns="http://www.w3.org/2000/svg" xmlns:xlink="http://www.w3.org/1999/xlink" width="1024" zoomAndPan="magnify" viewBox="0 0 768 767.999994" height="1024" preserveAspectRatio="xMidYMid meet" version="1.0"><defs><clipPath id="id1"><path d="M 76.800781 76.800781 L 691.050781 76.800781 L 691.050781 691.050781 L 76.800781 691.050781 Z M 76.800781 76.800781 " clip-rule="nonzero"/></clipPath><clipPath id="id2"><path d="M 233 233 L 537.898438 233 L 537.898438 537.898438 L 233 537.898438 Z M 233 233 " clip-rule="nonzero"/></clipPath></defs><g clip-path="url(#id1)"><path fill="#ff5757" d="M 383.925781 76.800781 C 214.304688 76.800781 76.800781 214.304688 76.800781 383.925781 C 76.800781 553.546875 214.304688 691.050781 383.925781 691.050781 C 553.546875 691.050781 691.050781 553.546875 691.050781 383.925781 C 691.050781 214.304688 553.546875 76.800781 383.925781 76.800781 " fill-opacity="1" fill-rule="nonzero"/></g><g clip-path="url(#id2)"><path fill="#ffffff" d="M 233.71875 318.976562 C 234.339844 324.546875 231.242188 338.792969 238.675781 344.980469 C 246.105469 351.171875 256.632812 363.554688 256.632812 363.554688 C 256.632812 363.554688 248.558594 442.226562 313.6875 479.363281 C 315.921875 484.539062 319.945312 488.824219 325.023438 491.566406 L 312.589844 524.34375 L 302.335938 528.441406 C 300.355469 529.238281 299.214844 531.328125 299.613281 533.425781 C 300.019531 535.523438 301.855469 537.039062 303.992188 537.039062 L 366.210938 537.039062 C 368.582031 537.039062 370.542969 535.179688 370.664062 532.8125 C 370.785156 530.445312 369.027344 528.394531 366.671875 528.148438 L 326.496094 524 L 342.132812 494.472656 C 348.832031 493.457031 354.675781 490.054688 358.664062 485.203125 C 362.871094 484.125 367.367188 482.835938 372.0625 481.359375 C 376.078125 484.136719 380.949219 485.847656 386.246094 486.085938 L 397.613281 525.511719 L 389.503906 528.382812 C 387.453125 529.105469 386.226562 531.199219 386.597656 533.335938 C 386.960938 535.476562 388.816406 537.039062 390.984375 537.039062 L 453.207031 537.039062 C 455.589844 537.039062 457.554688 535.167969 457.660156 532.785156 C 457.765625 530.402344 455.984375 528.359375 453.613281 528.140625 L 410.214844 524.179688 L 402.199219 481.882812 C 407.867188 478.246094 411.941406 472.554688 413.261719 465.941406 C 436.847656 455.769531 457.949219 444.246094 464.65625 435.992188 C 479.699219 417.484375 495.265625 386.554688 496.242188 369.945312 C 498.539062 369.296875 500.8125 368.425781 503.046875 367.269531 C 508.929688 342.191406 503.664062 310.308594 503.664062 310.308594 L 506.226562 304.617188 L 510.164062 308.761719 C 510.164062 308.761719 514.1875 311.859375 519.757812 303.191406 C 522.449219 299.007812 521.234375 293.671875 519.261719 289.269531 L 538.019531 292.359375 L 519.136719 272.546875 C 519.136719 272.546875 519.125 271.21875 518.902344 269.289062 L 520.375 270.066406 C 520.375 270.066406 523.472656 250.253906 513.566406 240.964844 C 503.660156 231.679688 466.203125 234 466.203125 234 L 484.464844 249.160156 C 478.304688 249.648438 471.664062 251.5 464.964844 255.824219 C 445.769531 268.210938 434.316406 320.835938 420.078125 325.167969 C 423.925781 335.238281 440.546875 354.179688 460.40625 364.398438 C 432.476562 355.296875 412.648438 332.597656 412.648438 332.597656 C 412.648438 332.597656 351.972656 338.785156 329.683594 328.261719 C 307.398438 317.738281 269.011719 280.589844 249.816406 279.351562 C 230.621094 278.113281 236.816406 286.164062 236.816406 286.164062 L 242.386719 299.167969 C 242.386719 299.167969 232.480469 294.832031 233.101562 302.265625 C 233.71875 309.699219 244.246094 322.078125 244.246094 322.078125 C 244.246094 322.078125 233.101562 313.40625 233.71875 318.976562 Z M 495.464844 280.902344 C 491.617188 280.902344 488.5 277.78125 488.5 273.9375 C 488.5 270.089844 491.617188 266.96875 495.464844 266.96875 C 499.3125 266.96875 502.429688 270.089844 502.429688 273.9375 C 502.425781 277.78125 499.3125 280.902344 495.464844 280.902344 Z M 495.464844 280.902344 " fill-opacity="1" fill-rule="nonzero"/></g></svg>
