<svg xmlns="http://www.w3.org/2000/svg" xmlns:xlink="http://www.w3.org/1999/xlink" width="1024" zoomAndPan="magnify" viewBox="0 0 768 767.999994" height="1024" preserveAspectRatio="xMidYMid meet" version="1.0"><path fill="#ffffff" d="M 0.4375 580.785156 L 0.460938 580.785156 C 0.46875 580.613281 0.460938 580.441406 0.460938 580.261719 C 0.449219 580.433594 0.4375 580.613281 0.4375 580.785156 Z M 0.4375 580.785156 " fill-opacity="1" fill-rule="nonzero"/><path fill="#ffffff" d="M 766.359375 650.40625 C 767.117188 645.390625 767.8125 640.332031 768.429688 635.222656 C 768.570312 634.070312 768.6875 632.917969 768.824219 631.757812 C 769.292969 627.789062 769.699219 623.789062 770.074219 619.765625 C 770.105469 619.425781 770.148438 619.09375 770.179688 618.753906 C 770.253906 618.027344 770.320312 617.3125 770.382812 616.585938 C 770.8125 611.730469 771.171875 606.835938 771.472656 601.90625 C 771.484375 601.832031 771.484375 601.746094 771.492188 601.671875 C 771.558594 600.660156 771.578125 599.632812 771.652344 598.609375 C 771.878906 594.554688 772.046875 590.46875 772.1875 586.375 C 772.207031 585.667969 772.261719 584.976562 772.285156 584.273438 C 772.304688 583.546875 772.304688 582.8125 772.328125 582.085938 C 772.464844 576.984375 772.550781 571.855469 772.550781 566.667969 C 772.550781 562.605469 772.507812 558.539062 772.421875 554.453125 C 772.402344 553.121094 772.335938 551.777344 772.304688 550.433594 C 772.273438 549.035156 772.21875 547.628906 772.167969 546.230469 C 772.132812 545.109375 772.125 543.988281 772.070312 542.867188 C 772.058594 542.6875 772.058594 542.507812 772.058594 542.324219 C 771.910156 538.613281 771.71875 534.898438 771.503906 531.1875 C 771.484375 530.738281 771.460938 530.300781 771.441406 529.855469 C 771.121094 524.390625 770.703125 518.90625 770.246094 513.433594 C 770.136719 512.144531 770.019531 510.863281 769.902344 509.574219 C 769.453125 504.625 768.964844 499.683594 768.410156 494.722656 C 768.335938 494.113281 768.28125 493.507812 768.207031 492.898438 C 767.566406 487.332031 766.839844 481.75 766.0625 476.183594 C 765.902344 475.125 765.761719 474.082031 765.613281 473.023438 C 764.863281 467.945312 764.085938 462.867188 763.242188 457.800781 C 763.136719 457.203125 763.039062 456.617188 762.953125 456.019531 C 761.984375 450.300781 760.949219 444.59375 759.828125 438.886719 C 759.6875 438.203125 759.558594 437.519531 759.421875 436.835938 C 758.355469 431.492188 757.242188 426.148438 756.070312 420.8125 C 755.960938 420.34375 755.867188 419.863281 755.761719 419.394531 C 754.457031 413.527344 753.082031 407.671875 751.617188 401.835938 C 751.566406 401.621094 751.5 401.417969 751.457031 401.207031 C 750.039062 395.496094 748.542969 389.8125 746.976562 384.136719 C 746.890625 383.816406 746.792969 383.484375 746.71875 383.164062 C 743.441406 371.355469 739.886719 359.632812 736.054688 348.023438 C 736 347.855469 735.949219 347.695312 735.882812 347.523438 C 732.007812 335.796875 727.847656 324.203125 723.417969 312.746094 L 723.351562 312.585938 C 718.890625 301.0625 714.164062 289.703125 709.167969 278.519531 C 709.167969 278.519531 709.167969 278.511719 709.15625 278.5 C 704.363281 267.777344 699.335938 257.214844 694.082031 246.859375 C 693.570312 245.84375 693.058594 244.839844 692.535156 243.839844 C 690.09375 239.101562 687.636719 234.40625 685.117188 229.757812 C 685.011719 229.585938 684.925781 229.40625 684.828125 229.234375 C 682.140625 224.292969 679.386719 219.417969 676.597656 214.574219 C 676.160156 213.816406 675.703125 213.0625 675.265625 212.304688 C 672.53125 207.621094 669.757812 202.980469 666.9375 198.402344 C 666.886719 198.316406 666.820312 198.230469 666.777344 198.15625 C 663.769531 193.28125 660.695312 188.480469 657.578125 183.746094 L 656.746094 182.496094 C 650.4375 172.96875 643.9375 163.699219 637.222656 154.738281 C 637.117188 154.609375 637.03125 154.492188 636.933594 154.363281 C 627.15625 141.328125 616.953125 128.929688 606.363281 117.25 C 605.902344 116.738281 605.433594 116.226562 604.964844 115.714844 C 597.960938 108.054688 590.800781 100.714844 583.457031 93.703125 C 583.0625 93.332031 582.664062 92.957031 582.28125 92.585938 C 574.808594 85.488281 567.175781 78.757812 559.375 72.398438 C 559.183594 72.238281 558.992188 72.089844 558.789062 71.921875 C 530.949219 49.304688 501.1875 31.582031 470.019531 20.019531 C 469.59375 19.859375 469.167969 19.710938 468.730469 19.550781 C 462.867188 17.417969 456.964844 15.496094 451.019531 13.789062 C 450.027344 13.511719 449.023438 13.222656 448.03125 12.945312 C 446.429688 12.507812 444.820312 12.082031 443.21875 11.6875 C 441.820312 11.335938 440.410156 11.015625 439.011719 10.683594 C 436.984375 10.214844 434.933594 9.765625 432.894531 9.351562 C 431.101562 8.976562 429.296875 8.625 427.496094 8.292969 C 426.289062 8.082031 425.070312 7.878906 423.863281 7.675781 C 422.007812 7.367188 420.128906 7.089844 418.261719 6.824219 C 417.277344 6.683594 416.308594 6.535156 415.335938 6.40625 C 412.5625 6.054688 409.773438 5.753906 407 5.511719 C 406.21875 5.445312 405.441406 5.394531 404.652344 5.328125 C 402.398438 5.148438 400.148438 5.007812 397.894531 4.890625 C 397.03125 4.847656 396.164062 4.804688 395.3125 4.761719 C 392.363281 4.644531 389.398438 4.570312 386.441406 4.570312 C 383.429688 4.570312 380.429688 4.644531 377.441406 4.773438 C 376.515625 4.804688 375.585938 4.859375 374.667969 4.914062 C 372.554688 5.019531 370.441406 5.160156 368.328125 5.328125 C 367.3125 5.402344 366.320312 5.488281 365.304688 5.574219 C 362.988281 5.789062 360.707031 6.03125 358.410156 6.320312 C 357.726562 6.40625 357.035156 6.480469 356.351562 6.554688 C 353.53125 6.929688 350.734375 7.367188 347.9375 7.835938 C 346.796875 8.027344 345.664062 8.242188 344.542969 8.453125 C 342.792969 8.773438 341.042969 9.117188 339.292969 9.480469 C 338 9.746094 336.710938 10.023438 335.417969 10.320312 C 333.816406 10.683594 332.203125 11.070312 330.605469 11.464844 C 329.3125 11.785156 328 12.09375 326.695312 12.433594 C 324.1875 13.09375 321.679688 13.800781 319.191406 14.535156 C 317.613281 15.003906 316.035156 15.515625 314.464844 16.019531 C 313.300781 16.390625 312.125 16.765625 310.972656 17.148438 C 309.289062 17.703125 307.644531 18.28125 305.96875 18.878906 C 304.984375 19.230469 304.003906 19.59375 303.019531 19.957031 C 296.875 22.226562 290.777344 24.746094 284.746094 27.496094 C 284.203125 27.730469 283.679688 27.96875 283.15625 28.210938 C 281.226562 29.109375 279.304688 30.035156 277.382812 30.976562 C 276.753906 31.285156 276.144531 31.59375 275.515625 31.894531 C 273.527344 32.886719 271.5625 33.886719 269.589844 34.921875 C 266.3125 36.652344 263.066406 38.453125 259.8125 40.308594 C 258.703125 40.949219 257.601562 41.601562 256.492188 42.25 C 245.914062 48.503906 235.550781 55.449219 225.417969 63.054688 C 224.800781 63.523438 224.179688 64.003906 223.550781 64.484375 C 220.863281 66.523438 218.191406 68.613281 215.546875 70.734375 C 214.863281 71.289062 214.167969 71.84375 213.484375 72.410156 C 210.722656 74.660156 207.976562 76.964844 205.253906 79.324219 C 204.816406 79.707031 204.371094 80.070312 203.933594 80.453125 C 197.464844 86.085938 191.089844 91.988281 184.847656 98.132812 L 183.726562 99.253906 C 181.058594 101.910156 178.410156 104.597656 175.785156 107.328125 C 175.175781 107.96875 174.566406 108.609375 173.949219 109.25 C 171.472656 111.871094 169.007812 114.527344 166.5625 117.226562 C 166.027344 117.804688 165.503906 118.378906 164.992188 118.96875 C 150.402344 135.214844 136.554688 152.839844 123.542969 171.59375 C 123.394531 171.816406 123.246094 172.03125 123.085938 172.253906 C 112.101562 188.140625 101.703125 204.824219 91.980469 222.183594 C 91.894531 222.320312 91.820312 222.460938 91.757812 222.597656 C 79.074219 245.226562 67.515625 268.972656 57.234375 293.511719 C 54.792969 299.28125 52.453125 305.09375 50.167969 310.953125 C 50.019531 311.324219 49.882812 311.699219 49.730469 312.074219 C 45.269531 323.59375 41.0625 335.253906 37.15625 347.042969 C 36.945312 347.695312 36.742188 348.332031 36.515625 348.984375 C 32.738281 360.507812 29.214844 372.132812 25.992188 383.859375 C 25.734375 384.777344 25.492188 385.695312 25.246094 386.613281 C 22.128906 398.101562 19.277344 409.664062 16.714844 421.28125 C 16.480469 422.394531 16.226562 423.503906 16 424.621094 C 13.515625 436.164062 11.316406 447.75 9.394531 459.367188 C 9.394531 459.402344 9.371094 459.445312 9.371094 459.484375 C 8.667969 463.828125 7.996094 468.179688 7.367188 472.535156 C 7.332031 472.734375 7.3125 472.929688 7.28125 473.121094 C 6.671875 477.292969 6.117188 481.460938 5.59375 485.632812 L 5.433594 486.785156 C 4.953125 490.742188 4.496094 494.691406 4.078125 498.628906 C 4.015625 499.226562 3.9375 499.8125 3.875 500.398438 C 3.492188 504.109375 3.136719 507.8125 2.816406 511.515625 C 2.742188 512.324219 2.667969 513.125 2.59375 513.9375 C 2.316406 517.414062 2.050781 520.882812 1.824219 524.347656 C 1.75 525.351562 1.664062 526.355469 1.613281 527.347656 C 1.398438 530.621094 1.238281 533.886719 1.078125 537.160156 C 1.023438 538.3125 0.949219 539.464844 0.90625 540.617188 C 0.757812 543.871094 0.683594 547.125 0.585938 550.378906 C 0.554688 551.488281 0.511719 552.597656 0.492188 553.707031 C 0.382812 558.027344 0.34375 562.347656 0.34375 566.648438 C 0.34375 571.554688 0.425781 576.429688 0.542969 581.273438 C 0.578125 582.726562 0.621094 584.164062 0.683594 585.605469 C 0.789062 589.148438 0.929688 592.65625 1.109375 596.15625 C 1.183594 597.597656 1.261719 599.046875 1.335938 600.488281 C 1.589844 604.851562 1.890625 609.183594 2.230469 613.480469 C 2.273438 613.867188 2.296875 614.25 2.328125 614.625 C 2.699219 619.113281 3.128906 623.574219 3.617188 627.992188 C 3.617188 628.035156 3.609375 628.085938 3.609375 628.117188 C 3.652344 628.511719 3.703125 628.898438 3.757812 629.28125 C 3.832031 629.984375 3.929688 630.691406 4.003906 631.394531 C 4.023438 631.574219 4.046875 631.757812 4.066406 631.925781 C 4.089844 632.066406 4.109375 632.195312 4.132812 632.34375 C 4.527344 635.808594 4.964844 639.246094 5.433594 642.660156 C 5.613281 643.992188 5.773438 645.316406 5.988281 646.640625 C 6.074219 647.226562 6.148438 647.8125 6.222656 648.398438 L 6.148438 648.484375 L 6.253906 648.613281 L 6.253906 648.625 C 6.757812 651.953125 7.289062 655.257812 7.835938 658.542969 C 7.929688 659.046875 8.007812 659.570312 8.082031 660.070312 C 8.847656 664.570312 9.683594 669.019531 10.578125 673.449219 C 10.769531 674.441406 10.996094 675.433594 11.199219 676.425781 C 11.914062 679.890625 12.671875 683.335938 13.449219 686.761719 C 13.707031 687.902344 13.984375 689.046875 14.25 690.175781 C 15.148438 693.972656 16.085938 697.738281 17.070312 701.472656 C 17.207031 701.953125 17.3125 702.445312 17.441406 702.933594 C 18.59375 707.265625 19.824219 711.542969 21.070312 715.789062 C 21.285156 716.453125 21.488281 717.101562 21.699219 717.773438 C 22.769531 721.316406 23.878906 724.816406 25.019531 728.292969 C 25.222656 728.871094 25.394531 729.445312 25.597656 730.023438 C 25.628906 730.140625 25.683594 730.246094 25.714844 730.375 C 25.800781 730.609375 25.894531 730.84375 25.972656 731.078125 C 27.1875 734.714844 28.457031 738.320312 29.769531 741.894531 C 29.898438 742.246094 30.015625 742.609375 30.144531 742.972656 C 30.199219 743.113281 30.25 743.25 30.304688 743.398438 C 31.808594 747.441406 33.355469 751.453125 34.980469 755.421875 C 35.277344 756.148438 35.589844 756.875 35.886719 757.609375 C 37.167969 760.714844 38.46875 763.796875 39.816406 766.835938 C 40.304688 767.945312 40.796875 769.046875 41.289062 770.144531 C 42.621094 773.101562 43.988281 776.035156 45.375 778.933594 C 45.664062 779.53125 45.933594 780.140625 46.210938 780.726562 L 46.21875 780.707031 C 48.578125 785.570312 51.023438 790.351562 53.554688 795.066406 L 53.554688 795.078125 C 53.703125 795.363281 53.863281 795.632812 54.011719 795.917969 C 55.324219 798.363281 56.660156 800.761719 58.003906 803.152344 C 58.28125 803.632812 58.558594 804.125 58.828125 804.601562 C 59.15625 805.167969 59.476562 805.734375 59.796875 806.300781 C 59.808594 806.300781 59.808594 806.308594 59.808594 806.308594 C 60.855469 808.101562 61.902344 809.894531 62.96875 811.664062 C 63.257812 812.15625 63.566406 812.648438 63.855469 813.136719 C 65.253906 815.441406 66.660156 817.726562 68.082031 819.988281 C 68.410156 820.5 68.742188 821.011719 69.074219 821.523438 C 70.484375 823.742188 71.921875 825.941406 73.375 828.117188 C 73.738281 828.671875 74.113281 829.214844 74.484375 829.757812 C 75.925781 831.871094 77.367188 833.960938 78.828125 836.042969 C 79.246094 836.640625 79.671875 837.226562 80.101562 837.824219 C 81.507812 839.796875 82.929688 841.738281 84.347656 843.671875 C 84.445312 843.796875 84.539062 843.925781 84.625 844.054688 C 85.042969 844.621094 85.457031 845.164062 85.886719 845.71875 C 87.316406 847.605469 88.757812 849.484375 90.199219 851.328125 C 90.761719 852.035156 91.308594 852.738281 91.875 853.429688 C 92.417969 854.113281 92.960938 854.808594 93.496094 855.480469 C 93.539062 855.53125 93.570312 855.574219 93.613281 855.628906 C 94.445312 856.664062 95.289062 857.675781 96.121094 858.691406 C 96.761719 859.460938 97.390625 860.214844 98.042969 860.972656 C 99.421875 862.617188 100.820312 864.257812 102.21875 865.871094 C 102.941406 866.691406 103.667969 867.503906 104.382812 868.3125 C 105.738281 869.839844 107.105469 871.363281 108.484375 872.867188 C 109.285156 873.742188 110.085938 874.597656 110.90625 875.460938 C 111.484375 876.078125 112.039062 876.699219 112.613281 877.308594 C 112.730469 877.425781 112.839844 877.542969 112.945312 877.660156 C 113.597656 878.339844 114.246094 879.003906 114.898438 879.675781 C 115.785156 880.59375 116.671875 881.488281 117.566406 882.394531 C 118.859375 883.71875 120.160156 885.03125 121.472656 886.320312 C 121.921875 886.769531 122.371094 887.21875 122.820312 887.65625 C 123.171875 887.984375 123.511719 888.304688 123.863281 888.636719 C 124.035156 888.796875 124.195312 888.957031 124.367188 889.117188 C 125.648438 890.34375 126.917969 891.570312 128.199219 892.777344 C 129.246094 893.734375 130.28125 894.683594 131.316406 895.636719 C 132.574219 896.777344 133.824219 897.929688 135.09375 899.046875 C 136.183594 900.019531 137.292969 900.980469 138.390625 901.929688 C 139.640625 903.007812 140.890625 904.09375 142.148438 905.152344 C 143.292969 906.101562 144.433594 907.050781 145.585938 907.988281 C 146.835938 909.023438 148.085938 910.046875 149.367188 911.070312 C 149.75 911.382812 150.125 911.699219 150.507812 912 L 150.550781 912 C 155.011719 915.53125 159.539062 918.964844 164.136719 922.273438 L 164.117188 922.273438 C 164.652344 922.65625 165.207031 923.019531 165.738281 923.402344 C 168.011719 925.015625 170.308594 926.605469 172.613281 928.164062 C 173.457031 928.738281 174.320312 929.304688 175.164062 929.867188 C 175.230469 929.902344 175.273438 929.933594 175.324219 929.964844 C 177.695312 931.523438 180.066406 933.070312 182.464844 934.574219 C 183.03125 934.925781 183.585938 935.277344 184.152344 935.640625 C 191.753906 940.355469 199.523438 944.785156 207.464844 948.933594 C 207.519531 948.953125 207.570312 948.988281 207.625 949.019531 C 213.367188 952.015625 219.207031 954.863281 225.121094 957.554688 L 225.132812 957.5625 C 225.226562 957.605469 225.324219 957.648438 225.417969 957.691406 C 232.773438 961.03125 240.289062 964.144531 247.890625 967.015625 C 248.476562 967.238281 249.050781 967.441406 249.628906 967.65625 C 252.074219 968.5625 254.519531 969.449219 256.992188 970.3125 C 257.035156 970.324219 257.070312 970.332031 257.113281 970.34375 C 258.03125 970.664062 258.9375 970.984375 259.855469 971.292969 C 260.269531 971.433594 260.667969 971.570312 261.0625 971.710938 C 264.9375 973 268.84375 974.238281 272.78125 975.410156 C 272.824219 975.421875 272.898438 975.445312 272.953125 975.464844 C 273.976562 975.765625 274.992188 976.050781 276.015625 976.351562 L 276.027344 976.351562 C 278.738281 977.128906 281.46875 977.898438 284.214844 978.613281 C 284.265625 978.621094 284.332031 978.632812 284.382812 978.65625 C 288.386719 979.710938 292.410156 980.703125 296.457031 981.632812 C 296.457031 981.632812 296.511719 981.640625 296.542969 981.652344 C 298.550781 982.113281 300.546875 982.546875 302.542969 982.976562 C 302.636719 982.996094 302.734375 983.007812 302.796875 983.027344 C 308.828125 984.296875 314.921875 985.441406 321.050781 986.433594 C 321.488281 986.507812 321.925781 986.570312 322.351562 986.644531 C 324.796875 987.03125 327.242188 987.402344 329.695312 987.753906 C 329.996094 987.796875 330.304688 987.839844 330.613281 987.882812 C 331.46875 988 332.332031 988.105469 333.199219 988.222656 C 333.773438 988.300781 334.339844 988.382812 334.917969 988.449219 C 337.488281 988.769531 340.0625 989.066406 342.664062 989.34375 C 343.328125 989.410156 343.988281 989.492188 344.660156 989.558594 C 348.972656 989.996094 353.308594 990.378906 357.664062 990.679688 C 358.089844 990.710938 358.515625 990.730469 358.933594 990.753906 L 359.019531 990.753906 C 360.023438 990.816406 361.035156 990.871094 362.050781 990.933594 C 364.835938 991.105469 367.613281 991.234375 370.417969 991.339844 C 371.164062 991.371094 371.925781 991.414062 372.683594 991.445312 C 373.289062 991.46875 373.898438 991.46875 374.519531 991.488281 C 378.488281 991.605469 382.480469 991.679688 386.484375 991.679688 C 390.230469 991.679688 393.957031 991.617188 397.679688 991.519531 C 398.183594 991.511719 398.683594 991.5 399.175781 991.476562 C 400.050781 991.457031 400.925781 991.402344 401.800781 991.371094 C 404.203125 991.285156 406.59375 991.179688 409.007812 991.050781 C 409.933594 991.007812 410.851562 990.957031 411.769531 990.902344 C 412.496094 990.859375 413.234375 990.804688 413.960938 990.761719 C 416.210938 990.613281 418.441406 990.441406 420.671875 990.25 C 421.625 990.175781 422.574219 990.101562 423.511719 990.015625 C 426.960938 989.707031 430.386719 989.355469 433.792969 988.972656 C 433.984375 988.949219 434.175781 988.929688 434.378906 988.90625 C 435.636719 988.757812 436.898438 988.597656 438.15625 988.4375 C 438.691406 988.375 439.226562 988.300781 439.75 988.222656 C 443.464844 987.746094 447.15625 987.199219 450.828125 986.625 C 451.191406 986.558594 451.542969 986.507812 451.917969 986.453125 C 453.730469 986.15625 455.535156 985.855469 457.328125 985.535156 C 457.519531 985.503906 457.679688 985.472656 457.851562 985.441406 C 461.4375 984.800781 464.980469 984.117188 468.527344 983.382812 C 468.8125 983.328125 469.09375 983.261719 469.378906 983.199219 C 473.03125 982.441406 476.648438 981.632812 480.257812 980.765625 L 480.289062 980.757812 C 483.160156 980.074219 486.011719 979.347656 488.839844 978.589844 C 488.871094 978.589844 488.894531 978.582031 488.902344 978.582031 C 489.851562 978.335938 490.804688 978.101562 491.742188 977.84375 C 495.265625 976.882812 498.746094 975.871094 502.214844 974.8125 C 502.351562 974.773438 502.480469 974.730469 502.621094 974.6875 C 505.898438 973.683594 509.171875 972.628906 512.429688 971.539062 C 512.71875 971.441406 513.015625 971.335938 513.304688 971.242188 C 516.476562 970.164062 519.632812 969.054688 522.773438 967.890625 L 523.285156 967.699219 C 525.164062 967.015625 527.03125 966.324219 528.867188 965.597656 L 528.890625 965.597656 C 533.042969 963.984375 537.140625 962.269531 541.230469 960.507812 C 541.792969 960.273438 542.347656 960.027344 542.914062 959.78125 C 546.375 958.269531 549.8125 956.722656 553.214844 955.109375 C 553.878906 954.800781 554.519531 954.480469 555.179688 954.171875 C 555.339844 954.097656 555.5 954.011719 555.660156 953.9375 C 559.429688 952.125 563.144531 950.222656 566.835938 948.273438 C 567.21875 948.070312 567.617188 947.878906 568 947.664062 C 568.148438 947.578125 568.308594 947.492188 568.457031 947.417969 C 572.546875 945.242188 576.582031 942.992188 580.5625 940.65625 C 580.679688 940.589844 580.789062 940.527344 580.894531 940.453125 C 581.011719 940.386719 581.117188 940.324219 581.226562 940.25 C 581.628906 940.015625 582.035156 939.769531 582.441406 939.523438 C 590.085938 935 597.535156 930.199219 604.835938 925.121094 C 604.859375 925.101562 604.878906 925.089844 604.902344 925.070312 C 610.878906 920.90625 616.71875 916.554688 622.4375 912.019531 L 622.449219 912.011719 C 626.816406 908.554688 631.117188 904.980469 635.320312 901.308594 C 635.40625 901.234375 635.515625 901.152344 635.589844 901.074219 C 639.804688 897.394531 643.9375 893.628906 647.992188 889.746094 L 648.003906 889.746094 C 660.171875 878.085938 671.605469 865.488281 682.257812 851.980469 C 682.449219 851.746094 682.628906 851.5 682.832031 851.265625 C 686.164062 847 689.441406 842.636719 692.632812 838.1875 C 692.921875 837.769531 693.21875 837.363281 693.507812 836.949219 C 696.65625 832.53125 699.71875 828.042969 702.6875 823.441406 C 702.921875 823.058594 703.179688 822.6875 703.414062 822.300781 C 706.445312 817.585938 709.414062 812.785156 712.273438 807.890625 C 712.285156 807.878906 712.285156 807.855469 712.304688 807.847656 C 720.109375 794.46875 727.226562 780.40625 733.664062 765.71875 C 733.664062 765.71875 733.675781 765.707031 733.675781 765.695312 C 735.703125 761.035156 737.667969 756.308594 739.554688 751.519531 C 739.726562 751.101562 739.867188 750.6875 740.035156 750.28125 C 741.414062 746.761719 742.75 743.21875 744.039062 739.632812 C 744.15625 739.304688 744.265625 738.984375 744.390625 738.652344 C 744.660156 737.894531 744.945312 737.125 745.203125 736.359375 C 745.265625 736.1875 745.332031 736.027344 745.394531 735.867188 C 747.039062 731.171875 748.609375 726.414062 750.101562 721.613281 C 750.371094 720.773438 750.625 719.929688 750.871094 719.085938 C 751.671875 716.496094 752.449219 713.890625 753.207031 711.265625 C 753.359375 710.777344 753.488281 710.273438 753.625 709.773438 C 754.042969 708.289062 754.480469 706.808594 754.882812 705.3125 L 755.109375 704.515625 C 755.800781 701.964844 756.453125 699.382812 757.117188 696.800781 C 757.222656 696.382812 757.328125 695.980469 757.425781 695.5625 C 757.882812 693.738281 758.320312 691.902344 758.757812 690.070312 C 759.027344 688.917969 759.304688 687.765625 759.558594 686.601562 C 759.964844 684.800781 760.394531 682.984375 760.789062 681.160156 C 760.863281 680.832031 760.925781 680.488281 760.992188 680.148438 C 761.578125 677.4375 762.164062 674.71875 762.707031 671.976562 C 762.71875 671.910156 762.730469 671.859375 762.742188 671.792969 C 763.050781 670.238281 763.328125 668.648438 763.617188 667.070312 C 763.796875 666.128906 763.96875 665.179688 764.140625 664.230469 C 764.929688 659.835938 765.6875 655.417969 766.371094 650.949219 L 766.636719 650.640625 Z M 766.359375 650.40625 " fill-opacity="1" fill-rule="nonzero"/></svg>